<svg xmlns="http://www.w3.org/2000/svg" viewBox="0 0 20 20" fill="#D3D3D3"><path d="M4.375 12.5H7.5v1.875H0V3.125h16.25V5H4.375c0 1.544-.956 2.5-2.5 2.5V10c1.544 0 2.5.956 2.5 2.5M20 11.875a5.625 5.625 0 1 1-11.25 0 5.625 5.625 0 0 1 11.25 0m-4.062 1.719V12.5h.624c.579 0 .938-.36.938-.937 0-.579-.36-.938-.937-.938h-.007c0-.053.006-.103.006-.156 0-1.447-.896-2.344-2.343-2.344-1.344 0-2.213.775-2.328 2.044l-.86.86a.313.313 0 0 0 .082.5l.715.355.138.829c.043.259.212.409.443.409a.7.7 0 0 0 .15-.019l.882-.219v1.178l-.732.366c-.356.178-.518.44-.518.838v.393a4.354 4.354 0 0 0 5.206-.622c-.216-.59-.744-1.087-1.456-1.443zM8.125 6.25c-1.35 0-2.187.956-2.187 2.5 0 1.303.6 2.184 1.596 2.428A6.87 6.87 0 0 1 9.67 6.862c-.375-.393-.9-.615-1.544-.615z" fill="#D3D3D3"></path></svg>