<svg width="33" height="33" viewBox="0 0 33 33" fill="none" xmlns="http://www.w3.org/2000/svg">
<g clip-path="url(#clip0_5203_99)">
<path d="M16.2376 2.92404C20.5761 2.92404 21.0899 2.94307 22.7961 3.01918C24.3818 3.08895 25.2381 3.35535 25.8089 3.57735C26.5637 3.86912 27.1092 4.22432 27.6737 4.78883C28.2446 5.35968 28.5934 5.89882 28.8852 6.65362C29.1072 7.22447 29.3736 8.0871 29.4434 9.66646C29.5195 11.379 29.5385 11.8928 29.5385 16.2249C29.5385 20.5634 29.5195 21.0772 29.4434 22.7834C29.3736 24.3691 29.1072 25.2254 28.8852 25.7963C28.5934 26.5511 28.2382 27.0965 27.6737 27.661C27.1029 28.2319 26.5637 28.5808 25.8089 28.8725C25.2381 29.0945 24.3755 29.3609 22.7961 29.4307C21.0835 29.5068 20.5698 29.5258 16.2376 29.5258C11.8991 29.5258 11.3854 29.5068 9.67915 29.4307C8.09344 29.3609 7.23716 29.0945 6.66631 28.8725C5.91151 28.5808 5.36603 28.2256 4.80152 27.661C4.23066 27.0902 3.88181 26.5511 3.59004 25.7963C3.36804 25.2254 3.10164 24.3628 3.03187 22.7834C2.95575 21.0709 2.93673 20.5571 2.93673 16.2249C2.93673 11.8864 2.95575 11.3727 3.03187 9.66646C3.10164 8.08075 3.36804 7.22447 3.59004 6.65362C3.88181 5.89882 4.237 5.35334 4.80152 4.78883C5.37237 4.21798 5.91151 3.86912 6.66631 3.57735C7.23716 3.35535 8.09978 3.08895 9.67915 3.01918C11.3854 2.94307 11.8991 2.92404 16.2376 2.92404ZM16.2376 0C11.8294 0 11.2775 0.0190285 9.54595 0.0951423C7.8207 0.171256 6.63459 0.45034 5.60705 0.849938C4.53512 1.26856 3.62809 1.82039 2.72741 2.72741C1.82039 3.62809 1.26856 4.53512 0.849938 5.60071C0.45034 6.63459 0.171256 7.81436 0.0951423 9.5396C0.0190285 11.2775 0 11.8294 0 16.2376C0 20.6459 0.0190285 21.1977 0.0951423 22.9293C0.171256 24.6545 0.45034 25.8407 0.849938 26.8682C1.26856 27.9401 1.82039 28.8472 2.72741 29.7478C3.62809 30.6485 4.53512 31.2067 5.60071 31.619C6.63459 32.0186 7.81436 32.2976 9.5396 32.3738C11.2712 32.4499 11.823 32.4689 16.2313 32.4689C20.6395 32.4689 21.1914 32.4499 22.923 32.3738C24.6482 32.2976 25.8343 32.0186 26.8619 31.619C27.9274 31.2067 28.8345 30.6485 29.7351 29.7478C30.6358 28.8472 31.194 27.9401 31.6063 26.8745C32.0059 25.8407 32.285 24.6609 32.3611 22.9356C32.4372 21.2041 32.4562 20.6522 32.4562 16.244C32.4562 11.8357 32.4372 11.2839 32.3611 9.55229C32.285 7.82704 32.0059 6.64093 31.6063 5.6134C31.2067 4.53512 30.6549 3.62809 29.7478 2.72741C28.8472 1.82673 27.9401 1.26856 26.8745 0.856281C25.8407 0.456683 24.6609 0.177599 22.9356 0.101485C21.1977 0.0190285 20.6459 0 16.2376 0Z" fill="black"/>
<path d="M16.2375 7.89679C11.6327 7.89679 7.89673 11.6327 7.89673 16.2376C7.89673 20.8425 11.6327 24.5784 16.2375 24.5784C20.8424 24.5784 24.5784 20.8425 24.5784 16.2376C24.5784 11.6327 20.8424 7.89679 16.2375 7.89679ZM16.2375 21.648C13.2501 21.648 10.8271 19.2251 10.8271 16.2376C10.8271 13.2501 13.2501 10.8272 16.2375 10.8272C19.225 10.8272 21.648 13.2501 21.648 16.2376C21.648 19.2251 19.225 21.648 16.2375 21.648Z" fill="black"/>
<path d="M26.8554 7.56682C26.8554 8.6451 25.9801 9.51407 24.9082 9.51407C23.8299 9.51407 22.9609 8.63875 22.9609 7.56682C22.9609 6.48854 23.8362 5.61957 24.9082 5.61957C25.9801 5.61957 26.8554 6.49488 26.8554 7.56682Z" fill="black"/>
</g>
<defs>
<clipPath id="clip0_5203_99">
<rect width="32.4752" height="32.4752" fill="white"/>
</clipPath>
</defs>
</svg>
